<svg xmlns="http://www.w3.org/2000/svg" xml:space="preserve" width="1500" height="1500" data-id="lg_0mQYR1fs01Pi1ifnyc" data-version="1"><path fill="#fff" stroke="transparent" d="M0 0h1500v1500H0z"/><g data-padding="20"><g fill="url(#a)" stroke="null" transform="translate(-670.345 -686.113)scale(1.8457)"><linearGradient id="a" x1="0" x2="1" y1="0" y2="0" gradientUnits="objectBoundingBox"><stop offset="0%" stop-color="#ff6cab"/><stop offset="100%" stop-color="#7366ff"/></linearGradient><path d="M543.772 824.489h-19.2q-6.51 0-9.89-1.65-3.38-1.64-4.55-5.37-1.17-3.72-1.17-9.91v-56.74q0-6.32 1.17-10.01 1.17-3.7 4.55-5.31t9.89-1.61h17.37q15.17 0 23.31 5.56 8.15 5.56 8.15 15.67 0 4.99-2.27 9.1-2.27 4.1-5.97 7.01-3.7 2.9-8.05 4.36v.25q5.55.76 10.04 3.63 4.49 2.88 7.17 7.46 2.69 4.58 2.69 10.52 0 8.84-4.27 14.88-4.26 6.03-11.75 9.09-7.49 3.07-17.22 3.07Zm-14.4-67.73v44.79q0 4.24 1.52 6.07 1.51 1.83 5.68 1.83h4.8q6.38 0 10.27-3.28 3.89-3.29 3.89-8.98 0-5.43-3.79-8.52-3.8-3.1-9.8-3.1h.07q-1.52 0-2.28-.44-1.64-1.08-3.38-2.5t-3.76-3.44q-.63-.82-.63-1.2 0-.51.63-1.2 2.02-2.02 3.76-3.48 1.74-1.45 3.38-2.46.89-.44 2.28-.44h-.07q3.73 0 6.86-2.78 3.12-2.78 3.12-8.72 0-6-3.34-7.99-3.35-1.99-8.6-1.99h-3.41q-4.17 0-5.68 1.77-1.52 1.77-1.52 6.06Zm109.8 67.73h-31.4q-6.5 0-9.88-1.65-3.38-1.64-4.55-5.37-1.17-3.72-1.17-9.91v-63.56q0-1.83.63-2.78 2.84-4.17 7.96-8.78.95-.76 1.64-.76.76 0 1.58.76 2.78 2.4 4.68 4.58 1.89 2.18 3.28 4.2.63 1.01.63 2.78v56.04q0 4.23 1.52 6.06t5.69 1.83l19.39-.06q1.52 0 2.28.51 1.64 1.13 3.41 2.71t3.73 3.79q.63.83.63 1.33 0 .57-.63 1.26-1.96 2.22-3.73 3.79-1.77 1.58-3.41 2.72-.89.51-2.28.51Zm39.3-80.49v77.14q0 1.89-.79 2.62t-2.69.73h-13.45q-1.9 0-2.69-.73t-.79-2.62v-77.14q0-1.83.63-2.78 2.85-4.17 7.96-8.78.95-.76 1.65-.76.76 0 1.58.76 2.78 2.4 4.67 4.58 1.9 2.18 3.29 4.2.63 1.01.63 2.78Zm39.48 15.04v62.1q0 1.89-.72 2.62-.73.73-2.56.73h-12.7q-1.77 0-2.53-.73-.75-.73-.75-2.62v-80.05q0-3.72 1.45-5.46t5.12-1.74h5.87q3.22 0 6.1.85 2.87.86 6.13 3.83 3.25 2.97 7.58 9.19 4.32 6.22 10.45 16.96 5.88 10.24 9.45 16.36 3.57 6.13 5.53 9.35 1.95 3.23 2.93 4.62t1.61 2.27v-53.32q0-1.83.57-2.78 2.72-4.17 7.52-8.78.95-.76 1.58-.76.7 0 1.52.76 2.59 2.4 4.39 4.58t3.13 4.2q.56 1.01.56 2.78v75.24q0 2.85-1.07 4.05t-3.92 1.2h-6.06q-2.72 0-5.56-.92t-6.45-4.17q-3.6-3.25-8.52-10.14-4.93-6.88-11.88-18.83-5.88-10.17-9.38-16.17-3.51-6-5.34-9.06-1.83-3.07-2.66-4.3-.82-1.23-1.39-1.86Zm102.86 27.04v35.06q0 1.89-.79 2.62t-2.69.73h-13.45q-1.9 0-2.69-.73t-.79-2.62v-77.14q0-1.83.63-2.78 2.85-4.17 7.96-8.78.95-.76 1.65-.76.75 0 1.57.76 2.78 2.4 4.68 4.58t3.29 4.2q.63 1.01.63 2.78v26.22h1.45q7.9 0 12.82-2.18 4.93-2.18 7.59-5.88 2.65-3.69 3.63-8.24t.98-9.29v-.63q0-1.83.63-2.78 2.84-4.17 7.96-8.78.95-.76 1.64-.76.76 0 1.58.76 2.78 2.4 4.68 4.58 1.89 2.18 3.28 4.2.63 1.01.63 2.78v.63q0 5.12-1.01 10.58-1.01 5.47-3.57 10.33-2.55 4.87-7.2 8.31-4.64 3.44-11.97 4.52v.44q6.57 2.08 11.72 6.92 5.15 4.83 8.91 11.02t6.16 12.45q2.4 6.25 3.41 11.18.5 2.34 0 3.22-.51.89-2.4.89h-15.48q-3.22 0-3.79-2.97-.95-4.8-3.7-10.84-2.75-6.03-6.85-11.65-4.11-5.63-9.13-9.29t-10.52-3.66Zm113.91 38.41h-31.78q-6.51 0-9.89-1.65-3.38-1.64-4.55-5.37-1.17-3.72-1.17-9.91v-56.74q0-6.32 1.17-10.01 1.17-3.7 4.55-5.31t9.89-1.61h29.69q1.52 0 2.27.51 1.65 1.13 3.42 2.71t3.72 3.79q.64.82.64 1.33 0 .57-.64 1.26-1.95 2.22-3.72 3.79-1.77 1.58-3.42 2.72-.88.51-2.27.51h-17.69q-4.17 0-5.69 1.77-1.51 1.76-1.51 6.06v12.26h22.68q1.52 0 2.27.5 1.65 1.14 3.42 2.72 1.76 1.58 3.72 3.79.63.82.63 1.33 0 .56-.63 1.26-1.96 2.21-3.72 3.79-1.77 1.58-3.42 2.72-.88.5-2.27.5h-22.68v12.76q0 4.24 1.51 6.07 1.52 1.83 5.69 1.83h19.78q1.51 0 2.27.51 1.64 1.13 3.41 2.71t3.73 3.79q.63.83.63 1.33 0 .57-.63 1.26-1.96 2.22-3.73 3.79-1.77 1.58-3.41 2.72-.88.51-2.27.51Zm43.71-67.1v63.75q0 1.89-.79 2.62t-2.68.73h-13.46q-1.89 0-2.68-.73t-.79-2.62v-70.32q0-6.32 1.17-10.01 1.17-3.7 4.55-5.31t9.88-1.61h16.74q32.98 0 32.98 25.33 0 7.71-2.59 12.64t-6.44 7.68q-3.86 2.74-7.58 4.13v.32q4.23 2.78 8.05 7.3 3.82 4.51 6.92 9.79t5.24 10.42q2.15 5.15 2.97 9.2.38 1.89.03 2.84-.34.95-2.17.95h-14.6q-1.64 0-2.87-.7-1.24-.69-2.25-3.22-4.8-12.07-11.05-19.68-6.26-7.61-12.07-12.22-3.73-2.97-3.73-4.24 0-1.01 1.2-2.78.76-1.07 2.22-2.59 1.45-1.51 2.52-2.27 1.08-.76 1.74-.95t2.05-.19q4.68 0 7.81-3.22 3.12-3.22 3.12-10.17 0-6.57-3.31-9.64-3.32-3.06-9.13-3.06h-3.79q-4.17 0-5.69 1.77t-1.52 6.06Z" font-family="ADLaM Display" font-size="129.387"/></g><path fill="transparent" stroke="transparent" stroke-width="1.919" d="M250 660.749h1000V839.25H250z"/></g></svg>