<svg xmlns="http://www.w3.org/2000/svg" xml:space="preserve" width="1500" height="1500" stroke="#000" data-id="lg_0mQYR1fs01Pi1ifnyc" data-version="1"><path fill="#fff" stroke="transparent" d="M0 0h1500v1500H0z"/><g data-padding="20"><path stroke-width="1.8457" d="M333.295 835.646h-35.437q-12.016 0-18.254-3.045-6.239-3.027-8.398-9.911-2.16-6.866-2.16-18.291V699.674q0-11.665 2.16-18.476 2.16-6.829 8.398-9.8t18.254-2.972h32.06q27.999 0 43.023 10.262 15.042 10.262 15.042 28.922 0 9.21-4.19 16.796-4.19 7.567-11.018 12.938-6.83 5.353-14.858 8.048v.461q10.243 1.403 18.53 6.7 8.288 5.316 13.234 13.769 4.965 8.453 4.965 19.417 0 16.316-7.881 27.464-7.863 11.13-21.687 16.777-13.824 5.666-31.783 5.666Zm-26.578-125.009v82.669q0 7.826 2.805 11.203 2.787 3.378 10.484 3.378h8.86q11.775 0 18.955-6.054 7.18-6.072 7.18-16.574 0-10.022-6.996-15.726-7.013-5.721-18.088-5.721h.13q-2.806 0-4.209-.812-3.027-1.994-6.238-4.615t-6.94-6.349q-1.163-1.513-1.163-2.215 0-.941 1.163-2.215 3.728-3.728 6.94-6.423 3.211-2.676 6.238-4.54 1.643-.812 4.209-.812h-.13q6.885 0 12.662-5.131 5.758-5.131 5.758-16.095 0-11.074-6.164-14.747-6.183-3.673-15.873-3.673h-6.294q-7.697 0-10.484 3.267-2.805 3.267-2.805 11.185Zm202.658 125.01H451.42q-11.997 0-18.236-3.046-6.238-3.027-8.398-9.911-2.16-6.866-2.16-18.291V687.086q0-3.378 1.164-5.131 5.241-7.697 14.691-16.205 1.754-1.403 3.027-1.403 1.403 0 2.917 1.403 5.13 4.43 8.637 8.453 3.489 4.024 6.054 7.752 1.163 1.864 1.163 5.131v103.433q0 7.807 2.806 11.185t10.502 3.378l35.788-.111q2.805 0 4.208.941 3.027 2.086 6.294 5.002t6.884 6.995q1.163 1.532 1.163 2.455 0 1.052-1.163 2.326-3.617 4.097-6.884 6.995-3.267 2.916-6.294 5.02-1.643.941-4.208.941Zm72.536-148.561v142.377q0 3.489-1.458 4.836t-4.965 1.347h-24.825q-3.507 0-4.965-1.347t-1.458-4.836V687.086q0-3.378 1.163-5.131 5.26-7.697 14.692-16.205 1.753-1.403 3.045-1.403 1.403 0 2.916 1.403 5.131 4.43 8.62 8.453 3.506 4.024 6.072 7.752 1.163 1.864 1.163 5.131Zm72.868 27.76v114.617q0 3.489-1.329 4.836-1.347 1.347-4.725 1.347h-23.44q-3.267 0-4.67-1.347-1.384-1.347-1.384-4.836V681.715q0-6.866 2.676-10.078t9.45-3.211h10.834q5.943 0 11.26 1.569 5.296 1.587 11.313 7.069 5.999 5.482 13.99 16.962 7.974 11.48 19.288 31.303 10.853 18.9 17.442 30.196 6.59 11.314 10.207 17.257 3.599 5.961 5.408 8.527t2.971 4.19v-98.413q0-3.378 1.052-5.131 5.02-7.697 13.88-16.205 1.753-1.403 2.916-1.403 1.292 0 2.806 1.403 4.78 4.43 8.102 8.453t5.777 7.752q1.034 1.864 1.034 5.131v138.87q0 5.26-1.975 7.476t-7.235 2.214h-11.185q-5.02 0-10.262-1.698t-11.905-7.696q-6.644-5.999-15.725-18.716-9.1-12.698-21.927-34.754-10.853-18.771-17.313-29.845-6.478-11.074-9.856-16.722-3.378-5.667-4.91-7.937-1.513-2.27-2.565-3.433Zm189.849 49.907v64.71q0 3.489-1.458 4.836t-4.965 1.347H813.38q-3.507 0-4.965-1.347t-1.458-4.836V687.086q0-3.378 1.163-5.131 5.26-7.697 14.692-16.205 1.753-1.403 3.045-1.403 1.384 0 2.898 1.403 5.13 4.43 8.638 8.453t6.072 7.752q1.163 1.864 1.163 5.131v48.394h2.676q14.581 0 23.662-4.023 9.1-4.024 14.009-10.853 4.89-6.81 6.7-15.209t1.808-17.146v-1.163q0-3.378 1.163-5.131 5.242-7.697 14.692-16.205 1.753-1.403 3.027-1.403 1.403 0 2.916 1.403 5.131 4.43 8.638 8.453 3.488 4.024 6.054 7.752 1.163 1.864 1.163 5.131v1.163q0 9.45-1.864 19.527-1.865 10.096-6.59 19.066-4.706 8.989-13.289 15.338-8.564 6.35-22.093 8.343v.812q12.127 3.839 21.632 12.772 9.505 8.915 16.445 20.34t11.37 22.979q4.43 11.535 6.293 20.635.923 4.318 0 5.943-.94 1.642-4.43 1.642h-28.57q-5.944 0-6.996-5.481-1.753-8.86-6.829-20.008-5.076-11.13-12.643-21.502-7.586-10.391-16.851-17.147t-19.417-6.755Zm210.243 70.893h-58.656q-12.015 0-18.254-3.045-6.238-3.027-8.398-9.911-2.16-6.866-2.16-18.291V699.674q0-11.665 2.16-18.476 2.16-6.829 8.398-9.8t18.254-2.972h54.799q2.805 0 4.19.941 3.045 2.086 6.312 5.002t6.866 6.995q1.181 1.514 1.181 2.455 0 1.052-1.181 2.326-3.6 4.097-6.866 6.995-3.267 2.916-6.312 5.02-1.625.941-4.19.941h-32.65q-7.697 0-10.503 3.267-2.787 3.249-2.787 11.185v22.629h41.86q2.806 0 4.19.922 3.046 2.105 6.313 5.02 3.248 2.917 6.866 6.996 1.163 1.513 1.163 2.455 0 1.033-1.163 2.325-3.618 4.08-6.866 6.995-3.267 2.917-6.312 5.02-1.625.924-4.19.924h-41.86v23.55q0 7.827 2.786 11.204 2.806 3.378 10.502 3.378h36.508q2.787 0 4.19.941 3.027 2.086 6.294 5.002t6.884 6.995q1.163 1.532 1.163 2.455 0 1.052-1.163 2.326-3.617 4.097-6.884 6.995-3.267 2.916-6.294 5.02-1.624.941-4.19.941Zm80.676-123.846v117.663q0 3.489-1.458 4.836t-4.947 1.347H1104.3q-3.488 0-4.946-1.347t-1.458-4.836v-129.79q0-11.664 2.16-18.475 2.159-6.829 8.397-9.8t18.236-2.972h30.897q60.87 0 60.87 46.752 0 14.23-4.78 23.33t-11.886 14.174q-7.124 5.057-13.99 7.623v.59q7.807 5.132 14.858 13.474 7.05 8.324 12.772 18.07t9.671 19.232q3.969 9.505 5.482 16.98.701 3.489.055 5.242-.627 1.753-4.005 1.753h-26.947q-3.027 0-5.297-1.292-2.289-1.273-4.153-5.943-8.86-22.277-20.395-36.323-11.554-14.046-22.278-22.555-6.884-5.481-6.884-7.825 0-1.865 2.215-5.131 1.403-1.975 4.097-4.78 2.677-2.788 4.651-4.19 1.994-1.403 3.212-1.754t3.784-.35q8.638 0 14.415-5.944 5.758-5.943 5.758-18.77 0-12.127-6.11-17.793-6.127-5.648-16.85-5.648h-6.996q-7.696 0-10.502 3.267t-2.805 11.185Z" font-family="ADLaM Display" font-size="129.387"/><path fill="transparent" stroke="transparent" stroke-width="1.919" d="M250 660.749h1000V839.25H250z"/></g></svg>